Love for All and Sharing is the first step to solving all the problems of humanity.

Website I want to share. 
               
   http://www.scenetime.com
 
 
  Credit to EVERYONE for sharing and seeding back
 especially to SCENETIME.COM where i get all my 
 downloads.


 support www.scenetime.com to grow faster.

                             
                                                            
                                                   

.                 ..................................NFO:....................................*******************************************************************************
              Attack.of.the.Sabretooth.2005.DVDRip.AC3.X264-BARC0DE
*******************************************************************************

-------------------------------------------------------------------------------
                              General Information
-------------------------------------------------------------------------------
Type.................: Movie
Name.................: Attack of the Sabertooth 
Movie Information....: http://www.imdb.com/title/tt0443334/
Genre................: Adventure | Sci-Fi | Thriller 

-------------------------------------------------------------------------------
                                    PLOT
-------------------------------------------------------------------------------
In the Fiji islands, the greedy and unscrupulous owner of the Valalola Resort Primal 
Park invites investors and guests for an opening party of his compound composed of 
hotel and zoo aiming to find partners for his discoveries. When a bunch of college 
smalltime thieves puts a virus in the security system to participate in a scavenger 
hunt, the greatest attractions of the zoo - sabretoothes from the prehistoric age 
developed from DNA found in fossils - escape, killing the hosts and guards for fun.

-------------------------------------------------------------------------------
                                    CAST
-------------------------------------------------------------------------------
Robert Carradine	... 	Grant
Nicholas Bell	... 	Niles
Brian Wimmer	... 	Brian
Stacy Haiduk	... 	Savannah
Rawiri Paratene	... 	Sachariah
Susanne Sutchy	... 	Autumn
Cleopatra Coleman	... 	Alys
Amanda Stephens	... 	Alaina
Natalie Avital	... 	Collette
Billy Aaron Brown	... 	Kirk
Parry Shen	... 	Robbie
Nathaniel Kiwi	... 	Alan
Bonnie Piesse	... 	Sharona
-------------------------------------------------------------------------------
                                    MEDiA iNFO
-------------------------------------------------------------------------------

General
Complete name                    : Attack.of.the.Sabretooth.2005.DVDRip.AC3.X264-BARC0DE.mkv
Format                           : Matroska
File size                        : 1.47 GiB
Duration                         : 1h 27mn
Overall bit rate                 : 2 388 Kbps
Writing application              : HandBrake 0.9.4

Video
ID                               : 1
Format                           : AVC
Format/Info                      : Advanced Video Codec
Format profile                   : High@L3.0
Format settings, CABAC           : Yes
Format settings, ReFrames        : 3 frames
Muxing mode                      : Container profile=Unknown@3.0
Codec ID                         : V_MPEG4/ISO/AVC
Duration                         : 1h 27mn
Bit rate                         : 1 927 Kbps
Width                            : 720 pixels
Height                           : 400 pixels
Display aspect ratio             : 16:9
Frame rate                       : 25.000 fps
Color space                      : YUV
Chroma subsampling               : 4:2:0
Bit depth                        : 8 bits
Scan type                        : Progressive
Bits/(Pixel*Frame)               : 0.268
Stream size                      : 1.16 GiB (79%)
Writing library                  : x264 core 79


Audio
ID                               : 2
Format                           : AC-3
Format/Info                      : Audio Coding 3
Mode extension                   : CM (complete main)
Codec ID                         : A_AC3
Duration                         : 1h 27mn
Bit rate mode                    : Constant
Bit rate                         : 448 Kbps
Channel(s)                       : 6 channels
Channel positions                : Front: L C R, Side: L R, LFE
Sampling rate                    : 48.0 KHz
Stream size                      : 282 MiB (19%)
Language                         : English

Text #1
ID                               : 3
Format                           : VobSub
Codec ID                         : S_VOBSUB
Codec ID/Info                    : The same subtitle format used on DVDs
Language                         : English

Text #2
ID                               : 4
Format                           : VobSub
Codec ID                         : S_VOBSUB
Codec ID/Info                    : The same subtitle format used on DVDs
Language                         : French

Text #3
ID                               : 5
Format                           : VobSub
Codec ID                         : S_VOBSUB
Codec ID/Info                    : The same subtitle format used on DVDs
Language                         : Italian

Text #4
ID                               : 6
Format                           : VobSub
Codec ID                         : S_VOBSUB
Codec ID/Info                    : The same subtitle format used on DVDs
Language                         : Spanish

Text #5
ID                               : 7
Format                           : VobSub
Codec ID                         : S_VOBSUB
Codec ID/Info                    : The same subtitle format used on DVDs
Language                         : Turkish